<svg xmlns="http://www.w3.org/2000/svg" viewBox="0 0 700 525"><path fill="#6AB6FF" d="M0 0h700v525H0z"/><path fill="#FFF" d="M97.8 266.4L229 193.3c2.1-1.2 3.7-1.7 4.8-1.7a6 6 0 0 1 4.3 1.8 5.8 5.8 0 0 1 1.8 4.3c0 2.4-1.6 4.5-4.9 6.4l-112.4 62.4 112.3 62.4c3.3 1.8 4.9 4 4.9 6.4a6 6 0 0 1-1.8 4.3 5.8 5.8 0 0 1-4.3 1.8 12 12 0 0 1-4.8-1.7L97.8 266.4zM404.6 160.5l-97.7 209.3c-1.6 3.6-3.8 5.3-6.4 5.3a6 6 0 0 1-4.3-1.8 5.5 5.5 0 0 1-1.8-4c0-1.2.5-2.7 1.4-4.8l97.5-209.3c1.1-2.2 2.1-3.7 3-4.3 1-.7 2.1-1 3.5-1a6 6 0 0 1 4.3 1.8 5.5 5.5 0 0 1 1.8 4c.1 1.1-.4 2.7-1.3 4.8zM602.2 266.4L471 339.5a10.6 10.6 0 0 1-4.8 1.7 6 6 0 0 1-4.3-1.8 5.8 5.8 0 0 1-1.8-4.3c0-2.4 1.6-4.5 4.9-6.4l112.4-62.4L465.2 204c-3.3-1.8-4.9-3.9-4.9-6.4a6 6 0 0 1 1.8-4.3 5.8 5.8 0 0 1 4.3-1.8c1.1 0 2.6.6 4.8 1.7l131 73.2z"/></svg>